<?xml version="1.0" encoding="UTF-8"?>
<svg width="48px" height="22px" viewBox="0 0 53 29" version="1.1" xmlns="http://www.w3.org/2000/svg" xmlns:xlink="http://www.w3.org/1999/xlink">
    <title>Platform9 Cube</title>
    <g id="cube" stroke="none" stroke-width="1" fill="none" fill-rule="evenodd">
        <g id="platform9-cube" transform="translate(0.000000, 0.000000)" fill-rule="nonzero">
            <path d="M52.4678899,10.733945 L44.4495413,7.44954128 L42.9541284,6.83486239 L36.2018349,4.0733945 L34.6972477,3.4587156 C34.6972477,3.4587156 26.6330275,0.183486239 26.5137615,0.119266055 C26.3853211,0.0550458716 26.2110092,0.119266055 26.2110092,0.119266055 L18.0733945,3.44954128 L16.5779817,4.06422018 L9.75229358,6.85321101 L8.25688073,7.46788991 L0.155963303,10.7889908 C0.155963303,10.7889908 0.0183486239,10.853211 0.137614679,10.9082569 C0.174311927,10.9266055 4.26605505,12.6055046 9.21100917,14.6238532 C16.2293578,17.4954128 24.9541284,21.0642202 26.2110092,21.5779817 C26.3211009,21.6146789 26.412844,21.6238532 26.5045872,21.587156 C27.6880734,21.1009174 36.3577982,17.559633 43.3577982,14.6880734 C48.2477064,12.6880734 52.3302752,11.0275229 52.4587156,10.9816514 C52.7431193,10.8440367 52.4678899,10.733945 52.4678899,10.733945 M41.4311927,7.46788991 L34.6880734,10.2293578 L34.6788991,10.2293578 L27.9174312,7.46788991 L34.6697248,4.70642202 L41.4311927,7.46788991 L41.4311927,7.46788991 Z M33.1834862,10.8440367 L26.3761468,13.6238532 L19.6146789,10.8715596 L26.4220183,8.08256881 L33.1834862,10.8440367 L33.1834862,10.8440367 Z M26.3669725,1.31192661 L33.1651376,4.09174312 L26.4220183,6.86238532 L19.6055046,4.0733945 L26.3669725,1.31192661 Z M18.1100917,4.67889908 L24.9174312,7.46788991 L18.1192661,10.2568807 L11.2844037,7.46788991 L18.1100917,4.67889908 L18.1100917,4.67889908 Z M3.04587156,10.8440367 L9.79816514,8.08256881 L16.6330275,10.8715596 L9.87155963,13.6330275 L3.04587156,10.8440367 L3.04587156,10.8440367 Z M11.3669725,14.2477064 L18.1192661,11.4862385 L24.8807339,14.2477064 L18.1192661,17.0091743 L11.3669725,14.2477064 Z M26.3669725,20.3761468 L19.6146789,17.6146789 L26.3761468,14.8440367 L26.3853211,14.8440367 L33.1376147,17.6055046 L26.3669725,20.3761468 L26.3669725,20.3761468 Z M34.6330275,16.9908257 L27.8807339,14.2293578 L34.6880734,11.4495413 L41.4495413,14.2018349 L34.6330275,16.9908257 L34.6330275,16.9908257 Z M42.9449541,13.5963303 L36.1834862,10.8440367 L42.9266055,8.08256881 L49.6788991,10.8440367 L42.9449541,13.5963303 Z" id="Shape" fill="#23A7E0"></path>
            <path d="M33.1834862,10.8440367 L26.3761468,13.6238532 L19.6146789,10.8715596 L26.4220183,8.08256881 L33.1834862,10.8440367 Z M41.4495413,14.2018349 L34.6330275,16.9908257 L27.8715596,14.2293578 L34.6880734,11.4495413 L41.4495413,14.2018349 Z M33.1376147,17.6055046 L26.3669725,20.3761468 L19.6146789,17.6146789 L26.3761468,14.8440367 L26.3853211,14.8440367 L33.1376147,17.6055046 Z" id="Shape" fill="#1C8CC9"></path>
            <path d="M51.5412844,18.0275229 L26.1926606,28.3944954 L0.825688073,18.0275229 L9.19266055,14.6055046 C16.2110092,17.4770642 24.9357798,21.0458716 26.1926606,21.559633 C26.3027523,21.5963303 26.3944954,21.6055046 26.4862385,21.5688073 C27.6697248,21.0825688 36.3394495,17.5412844 43.3394495,14.6697248 L51.5412844,18.0275229 Z" id="Path" fill="#0D7DB7"></path>
            <polygon id="Path" fill="#6CCDEE" points="16.6238532 10.8715596 9.87155963 13.6330275 3.04587156 10.8440367 9.79816514 8.08256881"></polygon>
            <polygon id="Path" fill="#1C8CC9" points="24.8807339 14.2477064 18.1192661 17 11.3669725 14.2477064 18.1192661 11.4862385"></polygon>
            <path d="M24.9174312,7.46788991 L18.1192661,10.2568807 L11.2844037,7.46788991 L18.1100917,4.67889908 L24.9174312,7.46788991 Z M33.1651376,4.09174312 L26.4220183,6.86238532 L19.6055046,4.0733945 L26.3669725,1.31192661 L33.1651376,4.09174312 Z M41.4311927,7.46788991 L34.6880734,10.2293578 L34.6788991,10.2293578 L27.9174312,7.46788991 L34.6697248,4.70642202 L41.4311927,7.46788991 Z M49.6788991,10.8440367 L42.9449541,13.5963303 L36.1834862,10.8440367 L42.9266055,8.08256881 L49.6788991,10.8440367 Z" id="Shape" fill="#6CCDEE"></path>
        </g>
    </g>
</svg>